<svg width="11" height="18" viewBox="0 0 11 18" fill="none" xmlns="http://www.w3.org/2000/svg">
<path d="M7.42267 15.589L7.74065 17.701L5.96285 18L5.65572 15.9493C3.88154 16.1333 2.10373 15.8382 1.00525 15.1827L1.6376 12.7181C2.76879 13.3074 4.02594 13.5718 5.28354 13.4847L4.80656 10.3416C2.76138 10.1691 0.452405 9.84327 0.0477037 7.15247C-0.252209 5.15545 0.853496 3.20826 3.60691 2.39566L3.29255 0.302811L5.06673 0L5.37748 2.05451C6.65845 1.91377 7.95262 2.09769 9.15349 2.59114L8.6151 5.05963C7.70323 4.6861 6.73038 4.50889 5.75328 4.53833L6.23747 7.74276C8.27905 7.89608 10.5519 8.22572 10.953 10.882C11.2493 12.8369 10.1544 14.7611 7.42267 15.589ZM4.40909 7.57027L4.00439 4.88714C3.09742 5.27044 2.80834 5.88373 2.90229 6.50469C2.99624 7.12564 3.56716 7.43995 4.40909 7.57027ZM8.14535 11.5873C8.04779 10.928 7.47687 10.6597 6.67108 10.5064L7.06494 13.1052C7.90325 12.7487 8.21762 12.1929 8.12729 11.5873H8.14535Z" fill="#E0E0E0"/>
</svg>
