<svg width="19" height="18" viewBox="0 0 19 18" fill="none" xmlns="http://www.w3.org/2000/svg">
<path d="M18.3713 15.103C18.2903 15.0054 18.2107 14.9077 18.1325 14.8135C17.0583 13.5142 16.4084 12.73 16.4084 9.05176C16.4084 7.14746 15.9529 5.58496 15.0549 4.41309C14.3928 3.54736 13.4978 2.89063 12.3181 2.40527C12.3029 2.39683 12.2893 2.38575 12.278 2.37256C11.8537 0.95166 10.6926 0 9.38303 0C8.07346 0 6.91281 0.951661 6.4885 2.37109C6.47717 2.3838 6.4638 2.39453 6.44895 2.40283C3.69602 3.53613 2.35813 5.71045 2.35813 9.0503C2.35813 12.73 1.7092 13.5142 0.634006 14.812C0.555881 14.9063 0.476291 15.002 0.395236 15.1016C0.185861 15.3541 0.0532054 15.6613 0.0129673 15.9868C-0.0272708 16.3123 0.0265934 16.6426 0.168185 16.9385C0.469455 17.5732 1.11154 17.9673 1.84445 17.9673H16.927C17.6565 17.9673 18.2942 17.5737 18.5964 16.9419C18.7386 16.6459 18.793 16.3154 18.7531 15.9895C18.7132 15.6636 18.5807 15.356 18.3713 15.103Z" fill="#ACACAC"/>
</svg>
