<svg width="19" height="12" viewBox="0 0 19 12" fill="none" xmlns="http://www.w3.org/2000/svg">
<path d="M18 4.27009L12.7 1.21009C12.0815 0.853006 11.3195 0.85281 10.7008 1.20958C10.0822 1.56634 9.70069 2.22592 9.69996 2.94009V4.87009C9.53891 4.62429 9.32332 4.41896 9.06996 4.27009L3.70996 1.21009C3.09148 0.853006 2.32952 0.85281 1.71085 1.20958C1.09218 1.56634 0.710693 2.22592 0.709961 2.94009V9.06009C0.710693 9.77425 1.09218 10.4338 1.71085 10.7906C2.32952 11.1474 3.09148 11.1472 3.70996 10.7901L8.99996 7.73009C9.25332 7.58121 9.46891 7.37589 9.62996 7.13009V9.06009C9.63069 9.77425 10.0122 10.4338 10.6308 10.7906C11.2495 11.1474 12.0115 11.1472 12.63 10.7901L18 7.73009C18.6168 7.37229 18.9964 6.71316 18.9964 6.00009C18.9964 5.28702 18.6168 4.62789 18 4.27009Z" fill="#ffff"/>
</svg>
