<svg width="24" height="24" viewBox="0 0 24 24" fill="none" xmlns="http://www.w3.org/2000/svg">
<path d="M21.7199 11.2498H20.0499V9.57983C20.0499 9.16562 19.7141 8.82983 19.2999 8.82983C18.8857 8.82983 18.5499 9.16562 18.5499 9.57983V11.2498H16.8799C16.4657 11.2498 16.1299 11.5856 16.1299 11.9998C16.1299 12.414 16.4657 12.7498 16.8799 12.7498H18.5499V14.4198C18.5499 14.834 18.8857 15.1698 19.2999 15.1698C19.7141 15.1698 20.0499 14.834 20.0499 14.4198V12.7498H21.7199C22.1341 12.7498 22.4699 12.414 22.4699 11.9998C22.4699 11.5856 22.1341 11.2498 21.7199 11.2498Z" fill="#ffff"/>
<path d="M12.1798 4.54994L6.29982 8.46994C5.96388 8.68998 5.57142 8.80807 5.16982 8.80994H3.56982C2.46525 8.80994 1.56982 9.70537 1.56982 10.8099V13.1099C1.56982 14.2145 2.46525 15.1099 3.56982 15.1099H5.16982C5.57142 15.1118 5.96388 15.2299 6.29982 15.4499L12.1798 19.3699C12.7987 19.817 13.6182 19.8728 14.2919 19.5136C14.9656 19.1544 15.3761 18.443 15.3498 17.6799V6.23994C15.3761 5.47689 14.9656 4.76547 14.2919 4.40629C13.6182 4.04711 12.7987 4.10284 12.1798 4.54994Z" fill="#ffff"/>
</svg>
