<svg width="16" height="22" viewBox="0 0 16 22" fill="none" xmlns="http://www.w3.org/2000/svg">
<path d="M15.8413 10.4692C15.8899 14.5983 12.7879 18.0859 8.68133 18.5192V20.9692C8.68133 21.389 8.34107 21.7292 7.92133 21.7292C7.5016 21.7292 7.16133 21.389 7.16133 20.9692V18.5592C3.07399 18.1277 -0.0213776 14.6692 0.00133533 10.5592C-0.0147416 10.2877 0.115258 10.0282 0.342364 9.87855C0.569471 9.72887 0.859181 9.71171 1.10236 9.83355C1.34555 9.95539 1.50526 10.1977 1.52134 10.4692C1.49193 12.1949 2.15005 13.8614 3.35062 15.1014C4.55118 16.3414 6.1956 17.0529 7.92133 17.0792C9.64707 17.0529 11.2915 16.3414 12.4921 15.1014C13.6926 13.8614 14.3507 12.1949 14.3213 10.4692C14.3213 10.0495 14.6616 9.70923 15.0813 9.70923C15.5011 9.70923 15.8413 10.0495 15.8413 10.4692Z" fill="#ffff"/>
<path fill-rule="evenodd" clip-rule="evenodd" d="M11.4614 1.46918C10.0364 0.0405042 7.8923 -0.391595 6.02517 0.373622C4.15805 1.13884 2.93388 2.95137 2.92139 4.96918V9.96918C2.92139 12.7306 5.15996 14.9692 7.92139 14.9692C10.6828 14.9692 12.9214 12.7306 12.9214 9.96918V4.96918C12.9132 3.65606 12.3888 2.39886 11.4614 1.46918ZM9.92139 8.37918L6.92139 11.3792C6.62429 11.6611 6.15849 11.6611 5.86139 11.3792C5.5731 11.0808 5.5731 10.6076 5.86139 10.3092L8.86139 7.30918C9.15421 7.01673 9.62857 7.01673 9.92139 7.30918C10.2097 7.60759 10.2097 8.08077 9.92139 8.37918ZM6.92139 7.62918L9.92139 4.62918C10.2097 4.33077 10.2097 3.85759 9.92139 3.55918C9.62857 3.26673 9.15421 3.26673 8.86139 3.55918L5.86139 6.55918C5.5731 6.85759 5.5731 7.33077 5.86139 7.62918C6.15421 7.92163 6.62857 7.92163 6.92139 7.62918Z" fill="#ffff"/>
</svg>
