<svg width="24" height="24" viewBox="0 0 24 24" fill="none" xmlns="http://www.w3.org/2000/svg">
<path d="M13.1601 15.32C12.8525 15.0123 12.4352 14.8394 12.0001 14.8394C11.5649 14.8394 11.1476 15.0123 10.8401 15.32L8.53005 17.63C8.06073 18.0991 7.92028 18.8047 8.17424 19.4177C8.4282 20.0307 9.02652 20.4303 9.69005 20.43H14.3101C14.9736 20.4303 15.5719 20.0307 15.8259 19.4177C16.0798 18.8047 15.9394 18.0991 15.4701 17.63L13.1601 15.32Z" fill="#ffff"/>
<path d="M19 4.32007H4.99996C3.81646 4.41071 2.92539 5.43544 2.99996 6.62007V13.5201C2.92539 14.7047 3.81646 15.7294 4.99996 15.8201H5.54996C7.11782 15.8217 8.62184 15.1992 9.72996 14.0901L10.54 13.2901C10.9266 12.9017 11.452 12.6833 12 12.6833C12.548 12.6833 13.0734 12.9017 13.46 13.2901L14.27 14.0901C15.3781 15.1992 16.8821 15.8217 18.45 15.8201H19C20.1835 15.7294 21.0745 14.7047 21 13.5201V6.62007C21.0745 5.43544 20.1835 4.41071 19 4.32007Z" fill="#ffff"/>
</svg>
