<svg width="24" height="24" viewBox="0 0 24 24" fill="none" xmlns="http://www.w3.org/2000/svg">
<path fill-rule="evenodd" clip-rule="evenodd" d="M12.2718 3.48667L10.1289 4.36762C9.76321 4.52095 9.34606 4.34381 9.19654 3.97905C9.04702 3.61429 9.22035 3.19714 9.58606 3.04667L11.9994 2.05429C12.1737 1.9819 12.3689 1.9819 12.5432 2.05429L14.9565 3.04667C15.3223 3.19714 15.4956 3.61429 15.3461 3.97905C15.2327 4.25524 14.9661 4.4219 14.6851 4.4219C14.5946 4.4219 14.5023 4.40476 14.4137 4.36762L12.2718 3.48667ZM19.1524 5.80952H4.85714C3.27919 5.80952 2 7.08871 2 8.66667V18.1905C2 19.7684 3.27919 21.0476 4.85714 21.0476H19.1429C20.7208 21.0476 22 19.7684 22 18.1905V8.66667C22 7.09242 20.7266 5.81477 19.1524 5.80952ZM12.9524 9.61905C12.9524 9.09306 13.3788 8.66667 13.9048 8.66667C14.4307 8.66667 14.8571 9.09306 14.8571 9.61905C14.8571 10.145 14.4307 10.5714 13.9048 10.5714C13.3788 10.5714 12.9524 10.145 12.9524 9.61905ZM13.9048 12.4762C13.3788 12.4762 12.9524 12.9026 12.9524 13.4286C12.9524 13.9546 13.3788 14.381 13.9048 14.381C14.4307 14.381 14.8571 13.9546 14.8571 13.4286C14.8571 12.9026 14.4307 12.4762 13.9048 12.4762ZM9.14286 9.61905C9.14286 9.09306 9.56925 8.66667 10.0952 8.66667C10.6212 8.66667 11.0476 9.09306 11.0476 9.61905C11.0476 10.145 10.6212 10.5714 10.0952 10.5714C9.56925 10.5714 9.14286 10.145 9.14286 9.61905ZM10.0952 12.4762C9.56925 12.4762 9.14286 12.9026 9.14286 13.4286C9.14286 13.9546 9.56925 14.381 10.0952 14.381C10.6212 14.381 11.0476 13.9546 11.0476 13.4286C11.0476 12.9026 10.6212 12.4762 10.0952 12.4762ZM7.2381 13.4286C7.2381 13.9546 6.8117 14.381 6.28571 14.381C5.75973 14.381 5.33333 13.9546 5.33333 13.4286C5.33333 12.9026 5.75973 12.4762 6.28571 12.4762C6.8117 12.4762 7.2381 12.9026 7.2381 13.4286ZM6.28571 10.5714C6.8117 10.5714 7.2381 10.145 7.2381 9.61905C7.2381 9.09306 6.8117 8.66667 6.28571 8.66667C5.75973 8.66667 5.33333 9.09306 5.33333 9.61905C5.33333 10.145 5.75973 10.5714 6.28571 10.5714ZM16.2857 17.2381C16.2857 17.7641 15.8593 18.1905 15.3333 18.1905H8.62857C8.10259 18.1905 7.67619 17.7641 7.67619 17.2381C7.67619 16.7121 8.10259 16.2857 8.62857 16.2857H15.3714C15.8974 16.2857 16.3238 16.7121 16.3238 17.2381H16.2857ZM17.7143 14.381C18.2403 14.381 18.6667 13.9546 18.6667 13.4286C18.6667 12.9026 18.2403 12.4762 17.7143 12.4762C17.1883 12.4762 16.7619 12.9026 16.7619 13.4286C16.7619 13.9546 17.1883 14.381 17.7143 14.381ZM18.6667 9.61905C18.6667 10.145 18.2403 10.5714 17.7143 10.5714C17.1883 10.5714 16.7619 10.145 16.7619 9.61905C16.7619 9.09306 17.1883 8.66667 17.7143 8.66667C18.2403 8.66667 18.6667 9.09306 18.6667 9.61905Z" fill="#ffff"/>
</svg>
